<?xml version="1.0" encoding="utf-8"?>
<!-- Generator: Adobe Illustrator 16.0.0, SVG Export Plug-In . SVG Version: 6.00 Build 0)  -->
<!DOCTYPE svg PUBLIC "-//W3C//DTD SVG 1.0//EN" "http://www.w3.org/TR/2001/REC-SVG-20010904/DTD/svg10.dtd">
<svg version="1.0" id="Layer_1" xmlns="http://www.w3.org/2000/svg" xmlns:xlink="http://www.w3.org/1999/xlink" x="0px" y="0px"
	 width="100px" height="100px" viewBox="0 0 100 100" enable-background="new 0 0 100 100" xml:space="preserve">
<path fill="#263238" d="M41.667,16.667c13.812,0,25,11.193,25,25h6.667C73.334,24.178,59.16,10,41.667,10
	C24.173,10,10,24.178,10,41.667c0,17.497,14.173,31.667,31.667,31.667h10.286l-5.28,5.289l4.708,4.711l10.977-10.977
	c1.305-1.3,1.309-3.412,0-4.712L51.381,56.666l-4.714,4.715l5.247,5.243v0.042H41.667c-13.809,0-25-11.188-25-25
	C16.667,27.859,27.858,16.667,41.667,16.667z"/>
<path fill="#FFB74D" d="M70,50c-4.466,0-8.577,1.481-11.904,3.955l4.802,4.802c2.061-1.306,4.485-2.091,7.103-2.091
	c7.357,0,13.334,5.982,13.334,13.334c0,7.354-5.977,13.334-13.334,13.334c-2.617,0-5.042-0.785-7.103-2.091l-4.802,4.802
	C61.423,88.519,65.534,90,70,90c11.049,0,20-8.952,20-20C90,58.955,81.049,50,70,50z"/>
</svg>
